# xmcd
#
# Track frame offsets:
#	150
#	12198
#	28092
#	45186
#	63523
#	76170
#	92489
#	107209
#	123577
#	135295
#
# Disc length: 2046 seconds
#
# Revision: 1
# Processed by: cddbd v1.5.2PL0 Copyright (c) Steve Scherf et al.
# Submitted via: audiograbber 1.83.01
#
DISCID=7107fc0a
DTITLE=Steel Blossoms - Steel Blossoms
DYEAR=2019
DGENRE=Country
TTITLE0=You're The Reason I Drink
TTITLE1=Revenge
TTITLE2=Trailer Neighbor
TTITLE3=County Line
TTITLE4=Pick Me Up
TTITLE5=Innocent
TTITLE6=You Ain't Sleeping Over
TTITLE7=Heroine
TTITLE8=Killed A Man
TTITLE9=Kentucky's Never Been This Far
EXTD=
EXTT0=
EXTT1=
EXTT2=
EXTT3=
EXTT4=
EXTT5=
EXTT6=
EXTT7=
EXTT8=
EXTT9=
PLAYORDER=
